<svg width="16" height="17" viewBox="0 0 16 17" fill="none" xmlns="http://www.w3.org/2000/svg">
<path d="M10.6668 9.09998V11.9C10.6668 14.2333 9.7335 15.1666 7.40016 15.1666H4.60016C2.26683 15.1666 1.3335 14.2333 1.3335 11.9V9.09998C1.3335 6.76665 2.26683 5.83331 4.60016 5.83331H7.40016C9.7335 5.83331 10.6668 6.76665 10.6668 9.09998Z" fill="#F8A80D"/>
<path opacity="0.4" d="M11.3998 1.83331H8.59984C6.29984 1.83331 5.36651 2.74665 5.33984 4.99998H7.39984C10.1998 4.99998 11.4998 6.29998 11.4998 9.09998V11.16C13.7532 11.1333 14.6665 10.2 14.6665 7.89998V5.09998C14.6665 2.76665 13.7332 1.83331 11.3998 1.83331Z" fill="#F8A80D"/>
</svg>
