<svg width="60" height="90" viewBox="0 0 60 90" fill="none" xmlns="http://www.w3.org/2000/svg">
<rect y="18" width="60" height="42" rx="21" fill="#FF5219"/>
<path d="M35 39.625H25C24.6583 39.625 24.375 39.3417 24.375 39C24.375 38.6583 24.6583 38.375 25 38.375H35C35.3417 38.375 35.625 38.6583 35.625 39C35.625 39.3417 35.3417 39.625 35 39.625Z" fill="white"/>
<path d="M30 44.625C29.6583 44.625 29.375 44.3417 29.375 44V34C29.375 33.6583 29.6583 33.375 30 33.375C30.3417 33.375 30.625 33.6583 30.625 34V44C30.625 44.3417 30.3417 44.625 30 44.625Z" fill="white"/>
</svg>
