<svg width="16" height="17" viewBox="0 0 16 17" fill="none" xmlns="http://www.w3.org/2000/svg">
<path d="M8.00008 14.6667C7.87341 14.6667 7.74675 14.62 7.64675 14.52L3.60008 10.4733C3.40674 10.28 3.40674 9.96001 3.60008 9.76667C3.79341 9.57334 4.11341 9.57334 4.30674 9.76667L8.00008 13.46L11.6934 9.76667C11.8867 9.57334 12.2067 9.57334 12.4001 9.76667C12.5934 9.96001 12.5934 10.28 12.4001 10.4733L8.35341 14.52C8.25341 14.62 8.12675 14.6667 8.00008 14.6667Z" fill="#999999"/>
<path d="M8 14.5533C7.72667 14.5533 7.5 14.3267 7.5 14.0533V2.83334C7.5 2.56001 7.72667 2.33334 8 2.33334C8.27333 2.33334 8.5 2.56001 8.5 2.83334V14.0533C8.5 14.3267 8.27333 14.5533 8 14.5533Z" fill="#999999"/>
</svg>
