<svg width="40" height="40" viewBox="0 0 40 40" fill="none" xmlns="http://www.w3.org/2000/svg">
<rect x="0.5" y="0.5" width="39" height="39" rx="19.5" fill="#1A1A1A"/>
<path fill-rule="evenodd" clip-rule="evenodd" d="M13.5166 13.5164C13.7606 13.2723 14.1564 13.2723 14.4004 13.5164L26.9004 26.0164C27.1445 26.2605 27.1445 26.6562 26.9004 26.9003C26.6564 27.1444 26.2606 27.1444 26.0166 26.9003L13.5166 14.4003C13.2725 14.1562 13.2725 13.7605 13.5166 13.5164Z" fill="#999999"/>
<path fill-rule="evenodd" clip-rule="evenodd" d="M26.9004 13.5164C27.1445 13.7605 27.1445 14.1562 26.9004 14.4003L14.4004 26.9003C14.1564 27.1444 13.7606 27.1444 13.5166 26.9003C13.2725 26.6562 13.2725 26.2605 13.5166 26.0164L26.0166 13.5164C26.2606 13.2723 26.6564 13.2723 26.9004 13.5164Z" fill="#999999"/>
<rect x="0.5" y="0.5" width="39" height="39" rx="19.5" stroke="#333333"/>
</svg>
