<svg width="200" height="39" viewBox="0 0 200 39" fill="none" xmlns="http://www.w3.org/2000/svg">
<rect width="200" height="39" rx="19.5" fill="#333333"/>
<path d="M21.0792 17.608C21.0792 15.872 22.4792 14.696 24.5652 14.696C26.4972 14.696 27.7432 15.774 27.8552 17.524H26.4692C26.3992 16.516 25.6852 15.928 24.5512 15.928C23.2772 15.928 22.4512 16.572 22.4512 17.566C22.4512 18.378 22.9132 18.868 23.8652 19.092L25.5312 19.484C27.1832 19.862 28.0232 20.758 28.0232 22.186C28.0232 24.006 26.6092 25.168 24.4532 25.168C22.3952 25.168 21.0232 24.09 20.9392 22.354H22.3392C22.3672 23.32 23.1792 23.936 24.4532 23.936C25.7972 23.936 26.6512 23.306 26.6512 22.298C26.6512 21.5 26.2172 20.996 25.2512 20.772L23.5852 20.394C21.9332 20.016 21.0792 19.064 21.0792 17.608ZM30.9933 25L28.7533 18.154H30.1113L31.2453 21.71C31.3993 22.214 31.5393 22.732 31.6653 23.334C31.7773 22.732 31.9593 22.158 32.1133 21.71L33.2613 18.154H34.6053L35.7393 21.71C35.8513 22.046 36.0753 22.844 36.1873 23.334C36.2993 22.788 36.4253 22.312 36.6213 21.71L37.7693 18.154H39.1413L36.8033 25H35.5573L34.3673 21.332C34.1433 20.646 34.0033 20.114 33.9333 19.736C33.8633 20.072 33.7373 20.52 33.4853 21.346L32.2953 25H30.9933ZM40.9134 16.53C40.4374 16.53 40.0454 16.138 40.0454 15.662C40.0454 15.172 40.4374 14.794 40.9134 14.794C41.3894 14.794 41.7814 15.172 41.7814 15.662C41.7814 16.138 41.3894 16.53 40.9134 16.53ZM40.2694 25V18.154H41.5854V25H40.2694ZM45.4279 25H44.1119V19.26H42.7679V18.154H44.1119V16.012H45.4279V18.154H46.7719V19.26H45.4279V25ZM47.4366 21.584C47.4366 19.442 48.7946 17.958 50.7966 17.958C52.5186 17.958 53.7226 18.938 53.9606 20.464H52.6446C52.4206 19.596 51.7206 19.134 50.8386 19.134C49.5926 19.134 48.7386 20.086 48.7386 21.57C48.7386 23.04 49.5366 23.992 50.7826 23.992C51.7206 23.992 52.4206 23.502 52.6586 22.69H53.9746C53.7086 24.174 52.4346 25.168 50.7826 25.168C48.7666 25.168 47.4366 23.74 47.4366 21.584ZM56.6791 24.986H55.3631V14.696H56.6791V19.204C57.1131 18.462 57.9391 17.958 59.0031 17.958C60.7531 17.958 61.5931 19.064 61.5931 20.814V25H60.2771V21.108C60.2771 19.722 59.6191 19.162 58.6391 19.162C57.3651 19.162 56.6791 20.086 56.6791 21.262V24.986ZM69.176 25H67.86V19.26H66.516V18.154H67.86V16.012H69.176V18.154H70.52V19.26H69.176V25ZM71.1847 21.57C71.1847 19.456 72.6967 17.972 74.7547 17.972C76.7987 17.972 78.3107 19.456 78.3107 21.57C78.3107 23.684 76.7987 25.168 74.7547 25.168C72.6967 25.168 71.1847 23.684 71.1847 21.57ZM72.5147 21.57C72.5147 22.998 73.4247 23.992 74.7547 23.992C76.0707 23.992 76.9947 22.998 76.9947 21.57C76.9947 20.142 76.0707 19.148 74.7547 19.148C73.4247 19.148 72.5147 20.142 72.5147 21.57ZM88.0196 25.154C85.1356 25.154 83.2176 23.082 83.2176 19.946C83.2176 16.824 85.1916 14.71 88.0896 14.71C90.3716 14.71 92.1216 16.068 92.4996 18.14H91.0296C90.6516 16.824 89.5176 16.026 88.0476 16.026C86.0036 16.026 84.6596 17.566 84.6596 19.932C84.6596 22.298 86.0036 23.838 88.0476 23.838C89.5316 23.838 90.7076 23.04 91.0856 21.794H92.5416C92.1076 23.81 90.3016 25.154 88.0196 25.154ZM97.9199 18.098V19.302H97.3319C96.0859 19.302 95.3159 20.058 95.3159 21.374V25H93.9999V18.168H95.2319L95.3159 19.204C95.5959 18.49 96.2819 18.014 97.2199 18.014C97.4579 18.014 97.6539 18.042 97.9199 18.098ZM101.862 25.168C99.8461 25.168 98.4601 23.712 98.4601 21.584C98.4601 19.442 99.8181 17.958 101.806 17.958C103.752 17.958 105.026 19.302 105.026 21.332V21.822L99.7341 21.836C99.8321 23.278 100.588 24.076 101.89 24.076C102.912 24.076 103.584 23.656 103.808 22.872H105.04C104.704 24.342 103.556 25.168 101.862 25.168ZM101.806 19.064C100.658 19.064 99.9301 19.75 99.7621 20.954H103.71C103.71 19.82 102.968 19.064 101.806 19.064ZM108.43 25.168C106.96 25.168 106.092 24.342 106.092 23.096C106.092 21.836 107.03 21.052 108.64 20.926L110.796 20.758V20.562C110.796 19.414 110.11 19.008 109.186 19.008C108.08 19.008 107.45 19.498 107.45 20.324H106.302C106.302 18.896 107.478 17.958 109.242 17.958C110.936 17.958 112.084 18.854 112.084 20.702V25H110.964L110.824 23.894C110.474 24.678 109.536 25.168 108.43 25.168ZM108.808 24.146C110.054 24.146 110.81 23.334 110.81 22.046V21.682L109.06 21.822C107.898 21.934 107.422 22.382 107.422 23.054C107.422 23.782 107.954 24.146 108.808 24.146ZM115.729 25H114.413V19.26H113.069V18.154H114.413V16.012H115.729V18.154H117.073V19.26H115.729V25ZM121.139 25.168C119.123 25.168 117.737 23.712 117.737 21.584C117.737 19.442 119.095 17.958 121.083 17.958C123.029 17.958 124.303 19.302 124.303 21.332V21.822L119.011 21.836C119.109 23.278 119.865 24.076 121.167 24.076C122.189 24.076 122.861 23.656 123.085 22.872H124.317C123.981 24.342 122.833 25.168 121.139 25.168ZM121.083 19.064C119.935 19.064 119.207 19.75 119.039 20.954H122.987C122.987 19.82 122.245 19.064 121.083 19.064ZM131.603 25.168C130.133 25.168 129.265 24.342 129.265 23.096C129.265 21.836 130.203 21.052 131.813 20.926L133.969 20.758V20.562C133.969 19.414 133.283 19.008 132.359 19.008C131.253 19.008 130.623 19.498 130.623 20.324H129.475C129.475 18.896 130.651 17.958 132.415 17.958C134.109 17.958 135.257 18.854 135.257 20.702V25H134.137L133.997 23.894C133.647 24.678 132.709 25.168 131.603 25.168ZM131.981 24.146C133.227 24.146 133.983 23.334 133.983 22.046V21.682L132.233 21.822C131.071 21.934 130.595 22.382 130.595 23.054C130.595 23.782 131.127 24.146 131.981 24.146ZM136.632 21.584C136.632 19.442 137.99 17.958 139.992 17.958C141.714 17.958 142.918 18.938 143.156 20.464H141.84C141.616 19.596 140.916 19.134 140.034 19.134C138.788 19.134 137.934 20.086 137.934 21.57C137.934 23.04 138.732 23.992 139.978 23.992C140.916 23.992 141.616 23.502 141.854 22.69H143.17C142.904 24.174 141.63 25.168 139.978 25.168C137.962 25.168 136.632 23.74 136.632 21.584ZM144.11 21.584C144.11 19.442 145.468 17.958 147.47 17.958C149.192 17.958 150.396 18.938 150.634 20.464H149.318C149.094 19.596 148.394 19.134 147.512 19.134C146.266 19.134 145.412 20.086 145.412 21.57C145.412 23.04 146.21 23.992 147.456 23.992C148.394 23.992 149.094 23.502 149.332 22.69H150.648C150.382 24.174 149.108 25.168 147.456 25.168C145.44 25.168 144.11 23.74 144.11 21.584ZM151.589 21.57C151.589 19.456 153.101 17.972 155.159 17.972C157.203 17.972 158.715 19.456 158.715 21.57C158.715 23.684 157.203 25.168 155.159 25.168C153.101 25.168 151.589 23.684 151.589 21.57ZM152.919 21.57C152.919 22.998 153.829 23.992 155.159 23.992C156.475 23.992 157.399 22.998 157.399 21.57C157.399 20.142 156.475 19.148 155.159 19.148C153.829 19.148 152.919 20.142 152.919 21.57ZM164.74 18.154H166.042V25H164.866L164.726 23.964C164.334 24.678 163.424 25.168 162.416 25.168C160.82 25.168 159.924 24.09 159.924 22.41V18.154H161.24V21.976C161.24 23.446 161.87 24.006 162.878 24.006C164.082 24.006 164.74 23.236 164.74 21.766V18.154ZM169.267 25H167.951V18.154H169.141L169.281 19.204C169.715 18.42 170.583 17.958 171.549 17.958C173.355 17.958 174.181 19.064 174.181 20.814V25H172.865V21.108C172.865 19.722 172.221 19.162 171.213 19.162C169.981 19.162 169.267 20.044 169.267 21.374V25ZM177.936 25H176.62V19.26H175.276V18.154H176.62V16.012H177.936V18.154H179.28V19.26H177.936V25Z" fill="#F8A80D"/>
</svg>
