<svg width="60" height="100" viewBox="0 0 60 100" fill="none" xmlns="http://www.w3.org/2000/svg">
<path d="M35.5999 40.5601H24.3998C22.5798 40.5601 20.9198 39.1601 20.6198 37.3601L19.2898 29.4001C19.0798 28.1601 19.6798 26.5701 20.6698 25.7801L27.5999 20.2301C28.9399 19.1501 31.0498 19.1601 32.3998 20.2401L39.3299 25.7801C40.3099 26.5701 40.9099 28.1601 40.7099 29.4001L39.3799 37.3601C39.0799 39.1301 37.3899 40.5601 35.5999 40.5601ZM29.9899 20.9401C29.4599 20.9401 28.9298 21.1001 28.5398 21.4101L21.6099 26.9601C21.0399 27.4201 20.6499 28.4401 20.7699 29.1601L22.0999 37.1201C22.2799 38.1701 23.3298 39.0601 24.3998 39.0601H35.5999C36.6699 39.0601 37.7198 38.1701 37.8998 37.1101L39.2298 29.1501C39.3498 28.4301 38.9499 27.4001 38.3899 26.9501L31.4599 21.4101C31.0599 21.1001 30.5299 20.9401 29.9899 20.9401Z" fill="#666666"/>
<path d="M30 34.25C28.21 34.25 26.75 32.79 26.75 31C26.75 29.21 28.21 27.75 30 27.75C31.79 27.75 33.25 29.21 33.25 31C33.25 32.79 31.79 34.25 30 34.25ZM30 29.25C29.04 29.25 28.25 30.04 28.25 31C28.25 31.96 29.04 32.75 30 32.75C30.96 32.75 31.75 31.96 31.75 31C31.75 30.04 30.96 29.25 30 29.25Z" fill="#666666"/>
<path d="M18.2848 63H17.3048V55.77H18.2848V58.88H21.8648V55.77H22.8448V63H21.8648V59.79H18.2848V63ZM24.0416 60.55C24.0416 59.04 25.1216 57.98 26.5916 57.98C28.0516 57.98 29.1316 59.04 29.1316 60.55C29.1316 62.06 28.0516 63.12 26.5916 63.12C25.1216 63.12 24.0416 62.06 24.0416 60.55ZM24.9916 60.55C24.9916 61.57 25.6416 62.28 26.5916 62.28C27.5316 62.28 28.1916 61.57 28.1916 60.55C28.1916 59.53 27.5316 58.82 26.5916 58.82C25.6416 58.82 24.9916 59.53 24.9916 60.55ZM31.1122 63H30.1722V58.11H31.0122L31.1022 58.75C31.3522 58.29 31.8722 57.97 32.5622 57.97C33.3222 57.97 33.8622 58.35 34.1122 58.96C34.3422 58.35 34.9322 57.97 35.6922 57.97C36.8122 57.97 37.4922 58.67 37.4922 59.8V63H36.5722V60.03C36.5722 59.26 36.1422 58.82 35.4822 58.82C34.7722 58.82 34.3022 59.32 34.3022 60.1V63H33.3722V60.02C33.3722 59.25 32.9522 58.83 32.2922 58.83C31.5822 58.83 31.1122 59.32 31.1122 60.1V63ZM40.9052 63.12C39.4652 63.12 38.4752 62.08 38.4752 60.56C38.4752 59.03 39.4452 57.97 40.8652 57.97C42.2552 57.97 43.1652 58.93 43.1652 60.38V60.73L39.3852 60.74C39.4552 61.77 39.9952 62.34 40.9252 62.34C41.6552 62.34 42.1352 62.04 42.2952 61.48H43.1752C42.9352 62.53 42.1152 63.12 40.9052 63.12ZM40.8652 58.76C40.0452 58.76 39.5252 59.25 39.4052 60.11H42.2252C42.2252 59.3 41.6952 58.76 40.8652 58.76Z" fill="#666666"/>
</svg>
