<svg width="61" height="100" viewBox="0 0 61 100" fill="none" xmlns="http://www.w3.org/2000/svg">
<path d="M30.9402 20.21L28.5302 25.82H26.1202C25.7202 25.82 25.3302 25.85 24.9502 25.93L25.9502 23.53L25.9902 23.44L26.0502 23.28C26.0802 23.21 26.1002 23.15 26.1302 23.1C27.2902 20.41 28.5902 19.57 30.9402 20.21Z" fill="white"/>
<path d="M37.7301 26.09L37.7101 26.08C37.1101 25.91 36.5001 25.82 35.8801 25.82H29.6201L31.8701 20.59L31.9001 20.52C32.0401 20.57 32.1901 20.64 32.3401 20.69L34.5501 21.62C35.7801 22.13 36.6401 22.66 37.1701 23.3C37.2601 23.42 37.3401 23.53 37.4201 23.66C37.5101 23.8 37.5801 23.94 37.6201 24.09C37.6601 24.18 37.6901 24.26 37.7101 24.35C37.8601 24.86 37.8701 25.44 37.7301 26.09Z" fill="white"/>
<path d="M31.52 35.66H31.77C32.07 35.66 32.32 35.39 32.32 35.06C32.32 34.64 32.2 34.58 31.94 34.48L31.52 34.33V35.66Z" fill="white"/>
<path d="M37.2902 27.52C36.8402 27.39 36.3702 27.32 35.8802 27.32H26.1202C25.4402 27.32 24.8002 27.45 24.2002 27.71C22.4602 28.46 21.2402 30.19 21.2402 32.2V34.15C21.2402 34.39 21.2602 34.62 21.2902 34.86C21.5102 38.04 23.2102 39.74 26.3902 39.95C26.6202 39.98 26.8502 40 27.1002 40H34.9002C38.6002 40 40.5502 38.24 40.7402 34.74C40.7502 34.55 40.7602 34.35 40.7602 34.15V32.2C40.7602 29.99 39.2902 28.13 37.2902 27.52ZM32.2802 33.5C32.7402 33.66 33.3602 34 33.3602 35.06C33.3602 35.97 32.6502 36.7 31.7702 36.7H31.5202V36.92C31.5202 37.21 31.2902 37.44 31.0002 37.44C30.7102 37.44 30.4802 37.21 30.4802 36.92V36.7H30.3902C29.4302 36.7 28.6402 35.89 28.6402 34.89C28.6402 34.6 28.8702 34.37 29.1602 34.37C29.4502 34.37 29.6802 34.6 29.6802 34.89C29.6802 35.31 30.0002 35.66 30.3902 35.66H30.4802V33.97L29.7202 33.7C29.2602 33.54 28.6402 33.2 28.6402 32.14C28.6402 31.23 29.3502 30.5 30.2302 30.5H30.4802V30.28C30.4802 29.99 30.7102 29.76 31.0002 29.76C31.2902 29.76 31.5202 29.99 31.5202 30.28V30.5H31.6102C32.5702 30.5 33.3602 31.31 33.3602 32.31C33.3602 32.6 33.1302 32.83 32.8402 32.83C32.5502 32.83 32.3202 32.6 32.3202 32.31C32.3202 31.89 32.0002 31.54 31.6102 31.54H31.5202V33.23L32.2802 33.5Z" fill="white"/>
<rect x="27" y="29" width="9" height="9" fill="white"/>
<path d="M29.6802 32.14C29.6802 32.56 29.8002 32.62 30.0602 32.72L30.4802 32.87V31.54H30.2302C29.9202 31.54 29.6802 31.81 29.6802 32.14Z" fill="white"/>
<path d="M19.3303 63L17.1803 55.77H18.2003L19.5203 60.19C19.6203 60.57 19.7203 60.95 19.8203 61.5C19.9403 60.92 20.0503 60.57 20.1603 60.19L21.5303 55.77H22.5903L23.9503 60.19C24.0703 60.58 24.1703 60.96 24.2803 61.5C24.4003 60.89 24.5003 60.52 24.6003 60.2L25.9303 55.77H26.9303L24.7503 63H23.8103L22.0603 57.28L20.2903 63H19.3303ZM28.4957 63.12C27.4457 63.12 26.8257 62.53 26.8257 61.64C26.8257 60.74 27.4957 60.18 28.6457 60.09L30.1857 59.97V59.83C30.1857 59.01 29.6957 58.72 29.0357 58.72C28.2457 58.72 27.7957 59.07 27.7957 59.66H26.9757C26.9757 58.64 27.8157 57.97 29.0757 57.97C30.2857 57.97 31.1057 58.61 31.1057 59.93V63H30.3057L30.2057 62.21C29.9557 62.77 29.2857 63.12 28.4957 63.12ZM28.7657 62.39C29.6557 62.39 30.1957 61.81 30.1957 60.89V60.63L28.9457 60.73C28.1157 60.81 27.7757 61.13 27.7757 61.61C27.7757 62.13 28.1557 62.39 28.7657 62.39ZM33.3675 63H32.4275V55.64H33.3675V63ZM35.7113 63H34.7713V55.64H35.7113V63ZM39.205 63.12C37.765 63.12 36.775 62.08 36.775 60.56C36.775 59.03 37.745 57.97 39.165 57.97C40.555 57.97 41.465 58.93 41.465 60.38V60.73L37.685 60.74C37.755 61.77 38.295 62.34 39.225 62.34C39.955 62.34 40.435 62.04 40.595 61.48H41.475C41.235 62.53 40.415 63.12 39.205 63.12ZM39.165 58.76C38.345 58.76 37.825 59.25 37.705 60.11H40.525C40.525 59.3 39.995 58.76 39.165 58.76ZM43.8461 63H42.9061V58.9H41.9461V58.11H42.9061V56.58H43.8461V58.11H44.8061V58.9H43.8461V63Z" fill="white"/>
</svg>
