<svg width="61" height="100" viewBox="0 0 61 100" fill="none" xmlns="http://www.w3.org/2000/svg">
<path d="M35 40.75H22C21.04 40.75 20.25 39.96 20.25 39V26C20.25 21.58 22.58 19.25 27 19.25H35C39.42 19.25 41.75 21.58 41.75 26V34C41.75 38.42 39.42 40.75 35 40.75ZM27 20.75C23.42 20.75 21.75 22.42 21.75 26V39C21.75 39.14 21.86 39.25 22 39.25H35C38.58 39.25 40.25 37.58 40.25 34V26C40.25 22.42 38.58 20.75 35 20.75H27Z" fill="#666666"/>
<path d="M36 28.25H26C25.59 28.25 25.25 27.91 25.25 27.5C25.25 27.09 25.59 26.75 26 26.75H36C36.41 26.75 36.75 27.09 36.75 27.5C36.75 27.91 36.41 28.25 36 28.25Z" fill="#666666"/>
<path d="M33 33.25H26C25.59 33.25 25.25 32.91 25.25 32.5C25.25 32.09 25.59 31.75 26 31.75H33C33.41 31.75 33.75 32.09 33.75 32.5C33.75 32.91 33.41 33.25 33 33.25Z" fill="#666666"/>
<path d="M19.8884 55.77V63H18.9084V55.77H19.8884ZM22.3544 63H21.4144V58.11H22.2644L22.3644 58.86C22.6744 58.3 23.2944 57.97 23.9844 57.97C25.2744 57.97 25.8644 58.76 25.8644 60.01V63H24.9244V60.22C24.9244 59.23 24.4644 58.83 23.7444 58.83C22.8644 58.83 22.3544 59.46 22.3544 60.41V63ZM28.0163 63H27.1663V55.64H28.1063V58.95C28.4263 58.31 29.0863 57.97 29.8863 57.97C31.2863 57.97 32.1263 59.07 32.1263 60.58C32.1263 62.06 31.2463 63.12 29.8263 63.12C29.0563 63.12 28.4063 62.78 28.0863 62.11L28.0163 63ZM28.1163 60.54C28.1163 61.56 28.6963 62.27 29.6563 62.27C30.6163 62.27 31.1863 61.55 31.1863 60.54C31.1863 59.54 30.6163 58.82 29.6563 58.82C28.6963 58.82 28.1163 59.54 28.1163 60.54ZM32.8424 60.55C32.8424 59.04 33.9224 57.98 35.3924 57.98C36.8524 57.98 37.9324 59.04 37.9324 60.55C37.9324 62.06 36.8524 63.12 35.3924 63.12C33.9224 63.12 32.8424 62.06 32.8424 60.55ZM33.7924 60.55C33.7924 61.57 34.4424 62.28 35.3924 62.28C36.3324 62.28 36.9924 61.57 36.9924 60.55C36.9924 59.53 36.3324 58.82 35.3924 58.82C34.4424 58.82 33.7924 59.53 33.7924 60.55ZM39.2874 63H38.2074L39.9174 60.58L38.2174 58.11H39.3074L40.5474 59.93L41.7574 58.11H42.8274L41.1274 60.58L42.7974 63H41.7074L40.4874 61.21L39.2874 63Z" fill="#666666"/>
</svg>
