<svg width="60" height="100" viewBox="0 0 60 100" fill="none" xmlns="http://www.w3.org/2000/svg">
<path d="M30.12 31.53C30.1 31.53 30.07 31.53 30.05 31.53C30.02 31.53 29.98 31.53 29.95 31.53C27.68 31.46 25.98 29.69 25.98 27.51C25.98 25.29 27.79 23.48 30.01 23.48C32.23 23.48 34.04 25.29 34.04 27.51C34.03 29.7 32.32 31.46 30.15 31.53C30.13 31.53 30.13 31.53 30.12 31.53ZM30 24.97C28.6 24.97 27.47 26.11 27.47 27.5C27.47 28.87 28.54 29.98 29.9 30.03C29.93 30.02 30.03 30.02 30.13 30.03C31.47 29.96 32.52 28.86 32.53 27.5C32.53 26.11 31.4 24.97 30 24.97Z" fill="#666666"/>
<path d="M29.9998 40.75C27.3098 40.75 24.7398 39.75 22.7498 37.93C22.5698 37.77 22.4898 37.53 22.5098 37.3C22.6398 36.11 23.3798 35 24.6098 34.18C27.5898 32.2 32.4198 32.2 35.3898 34.18C36.6198 35.01 37.3598 36.11 37.4898 37.3C37.5198 37.54 37.4298 37.77 37.2498 37.93C35.2598 39.75 32.6898 40.75 29.9998 40.75ZM24.0798 37.1C25.7398 38.49 27.8298 39.25 29.9998 39.25C32.1698 39.25 34.2598 38.49 35.9198 37.1C35.7398 36.49 35.2598 35.9 34.5498 35.42C32.0898 33.78 27.9198 33.78 25.4398 35.42C24.7298 35.9 24.2598 36.49 24.0798 37.1Z" fill="#666666"/>
<path d="M30 40.75C24.07 40.75 19.25 35.93 19.25 30C19.25 24.07 24.07 19.25 30 19.25C35.93 19.25 40.75 24.07 40.75 30C40.75 35.93 35.93 40.75 30 40.75ZM30 20.75C24.9 20.75 20.75 24.9 20.75 30C20.75 35.1 24.9 39.25 30 39.25C35.1 39.25 39.25 35.1 39.25 30C39.25 24.9 35.1 20.75 30 20.75Z" fill="#666666"/>
<path d="M19.7066 60.42H17.8766V63H16.8966V55.77H19.7066C21.1266 55.77 22.0366 56.7 22.0366 58.09C22.0366 59.44 21.1166 60.42 19.7066 60.42ZM19.5366 56.65H17.8766V59.54H19.4966C20.4666 59.54 21.0066 58.97 21.0066 58.08C21.0066 57.17 20.4566 56.65 19.5366 56.65ZM25.7866 58.07V58.93H25.3666C24.4766 58.93 23.9266 59.47 23.9266 60.41V63H22.9866V58.12H23.8666L23.9266 58.86C24.1266 58.35 24.6166 58.01 25.2866 58.01C25.4566 58.01 25.5966 58.03 25.7866 58.07ZM26.1725 60.55C26.1725 59.04 27.2525 57.98 28.7225 57.98C30.1825 57.98 31.2625 59.04 31.2625 60.55C31.2625 62.06 30.1825 63.12 28.7225 63.12C27.2525 63.12 26.1725 62.06 26.1725 60.55ZM27.1225 60.55C27.1225 61.57 27.7725 62.28 28.7225 62.28C29.6625 62.28 30.3225 61.57 30.3225 60.55C30.3225 59.53 29.6625 58.82 28.7225 58.82C27.7725 58.82 27.1225 59.53 27.1225 60.55ZM35.5838 63V58.9H33.4138V63H32.4738V58.9H31.7538V58.11H32.4738V57.33C32.4738 56.13 33.1238 55.64 33.9738 55.64C34.1538 55.64 34.3738 55.65 34.5538 55.68V56.49H34.1338C33.5638 56.49 33.4138 56.8 33.4138 57.33V58.11H36.5238V63H35.5838ZM36.0538 56.91C35.7138 56.91 35.4538 56.65 35.4538 56.31C35.4538 55.97 35.7138 55.71 36.0538 55.71C36.3838 55.71 36.6437 55.97 36.6437 56.31C36.6437 56.65 36.3838 56.91 36.0538 56.91ZM38.8197 63H37.8797V55.64H38.8197V63ZM42.3134 63.12C40.8734 63.12 39.8834 62.08 39.8834 60.56C39.8834 59.03 40.8534 57.97 42.2734 57.97C43.6634 57.97 44.5734 58.93 44.5734 60.38V60.73L40.7934 60.74C40.8634 61.77 41.4034 62.34 42.3334 62.34C43.0634 62.34 43.5434 62.04 43.7034 61.48H44.5834C44.3434 62.53 43.5234 63.12 42.3134 63.12ZM42.2734 58.76C41.4534 58.76 40.9334 59.25 40.8134 60.11H43.6334C43.6334 59.3 43.1034 58.76 42.2734 58.76Z" fill="#666666"/>
</svg>
