<svg width="119" height="39" viewBox="0 0 119 39" fill="none" xmlns="http://www.w3.org/2000/svg">
<rect width="118.971" height="39" rx="19.5" fill="#F8A80D"/>
<path d="M25.2148 22.7704C25.1476 22.7032 25.1052 22.6113 25.1052 22.5052L25.1052 18.2131C25.1052 18.008 25.2749 17.8383 25.48 17.8383C25.685 17.8383 25.8547 18.008 25.8547 18.2131L25.8547 22.1304L29.7721 22.1304C29.9772 22.1304 30.1469 22.3001 30.1469 22.5052C30.1469 22.7103 29.9772 22.88 29.7721 22.88L25.48 22.88C25.3739 22.88 25.282 22.8376 25.2148 22.7704Z" fill="#1A1A1A"/>
<path d="M25.2753 22.7103C25.1303 22.5653 25.1303 22.3249 25.2753 22.1799L31.2256 16.2296C31.3705 16.0847 31.6109 16.0847 31.7559 16.2296C31.9008 16.3746 31.9008 16.615 31.7559 16.76L25.8056 22.7103C25.6606 22.8552 25.4202 22.8552 25.2753 22.7103Z" fill="#1A1A1A"/>
<path d="M43.8488 25V20.996H46.4388L48.3288 25H49.8548L47.7968 20.73C49.0568 20.324 49.7568 19.316 49.7568 17.916C49.7568 16.026 48.4688 14.878 46.2988 14.878H42.4768V25H43.8488ZM43.8488 16.11H46.2988C47.5588 16.11 48.3148 16.754 48.3148 17.93C48.3148 19.092 47.5868 19.778 46.3128 19.778H43.8488V16.11ZM53.8748 25.168C55.5688 25.168 56.7168 24.342 57.0528 22.872H55.8208C55.5968 23.656 54.9248 24.076 53.9028 24.076C52.6008 24.076 51.8448 23.278 51.7468 21.836L57.0387 21.822V21.332C57.0387 19.302 55.7648 17.958 53.8188 17.958C51.8308 17.958 50.4728 19.442 50.4728 21.584C50.4728 23.712 51.8588 25.168 53.8748 25.168ZM53.8188 19.064C54.9808 19.064 55.7228 19.82 55.7228 20.954H51.7748C51.9428 19.75 52.6708 19.064 53.8188 19.064ZM58.0606 21.584C58.0606 23.74 59.3906 25.168 61.4066 25.168C63.0586 25.168 64.3326 24.174 64.5986 22.69H63.2826C63.0446 23.502 62.3446 23.992 61.4066 23.992C60.1606 23.992 59.3626 23.04 59.3626 21.57C59.3626 20.086 60.2166 19.134 61.4626 19.134C62.3446 19.134 63.0446 19.596 63.2686 20.464H64.5846C64.3466 18.938 63.1426 17.958 61.4206 17.958C59.4186 17.958 58.0606 19.442 58.0606 21.584ZM68.9412 25.168C70.6352 25.168 71.7832 24.342 72.1192 22.872H70.8872C70.6632 23.656 69.9912 24.076 68.9692 24.076C67.6672 24.076 66.9112 23.278 66.8132 21.836L72.1052 21.822V21.332C72.1052 19.302 70.8312 17.958 68.8852 17.958C66.8972 17.958 65.5392 19.442 65.5392 21.584C65.5392 23.712 66.9252 25.168 68.9412 25.168ZM68.8852 19.064C70.0472 19.064 70.7892 19.82 70.7892 20.954H66.8412C67.0092 19.75 67.7372 19.064 68.8852 19.064ZM74.219 16.53C74.695 16.53 75.087 16.138 75.087 15.662C75.087 15.172 74.695 14.794 74.219 14.794C73.743 14.794 73.351 15.172 73.351 15.662C73.351 16.138 73.743 16.53 74.219 16.53ZM73.575 25H74.891V18.154H73.575V25ZM78.7196 25H80.0216L82.8776 18.154H81.5056L79.9796 21.976C79.7416 22.578 79.5176 23.166 79.4056 23.614C79.2936 23.194 79.0976 22.62 78.8596 21.976L77.3616 18.154H75.9616L78.7196 25ZM86.5642 25.168C88.2582 25.168 89.4062 24.342 89.7422 22.872H88.5102C88.2862 23.656 87.6142 24.076 86.5922 24.076C85.2902 24.076 84.5342 23.278 84.4362 21.836L89.7282 21.822V21.332C89.7282 19.302 88.4542 17.958 86.5082 17.958C84.5202 17.958 83.1622 19.442 83.1622 21.584C83.1622 23.712 84.5482 25.168 86.5642 25.168ZM86.5082 19.064C87.6702 19.064 88.4122 19.82 88.4122 20.954H84.4642C84.6322 19.75 85.3602 19.064 86.5082 19.064ZM93.9421 25.168C95.0341 25.168 95.9581 24.692 96.4061 23.754L96.5181 25H97.6941V14.696H96.3921V19.26C95.9301 18.42 95.0481 17.958 93.9981 17.958C91.9681 17.958 90.7501 19.498 90.7501 21.598C90.7501 23.684 91.9541 25.168 93.9421 25.168ZM94.2081 23.978C92.8641 23.978 92.0801 22.97 92.0801 21.556C92.0801 20.156 92.8641 19.148 94.2081 19.148C95.5521 19.148 96.3781 20.156 96.3781 21.556C96.3781 22.984 95.5521 23.978 94.2081 23.978Z" fill="#1A1A1A"/>
</svg>
