<svg width="30" height="30" viewBox="0 0 30 30" fill="none" xmlns="http://www.w3.org/2000/svg">
<path d="M9.54927 20.4506C9.43731 20.3386 9.3666 20.1854 9.3666 20.0087L9.3666 12.8551C9.3666 12.5133 9.64944 12.2305 9.99121 12.2305C10.333 12.2305 10.6158 12.5133 10.6158 12.8551L10.6158 19.384L17.1448 19.384C17.4865 19.384 17.7694 19.6669 17.7694 20.0087C17.7694 20.3504 17.4865 20.6333 17.1448 20.6333L9.99121 20.6333C9.81443 20.6333 9.66123 20.5626 9.54927 20.4506Z" fill="#666666"/>
<path d="M9.64968 20.3504C9.40808 20.1088 9.40808 19.7081 9.64968 19.4665L19.5668 9.54936C19.8084 9.30777 20.2091 9.30777 20.4507 9.54936C20.6923 9.79096 20.6923 10.1917 20.4507 10.4332L10.5336 20.3504C10.292 20.592 9.89127 20.592 9.64968 20.3504Z" fill="#666666"/>
</svg>
