<svg width="30" height="30" viewBox="0 0 30 30" fill="none" xmlns="http://www.w3.org/2000/svg">
<path d="M19.567 17.5868C19.455 17.4749 19.3843 17.3217 19.3843 17.1449V10.6159L12.8553 10.6159C12.5136 10.6159 12.2307 10.3331 12.2307 9.99132C12.2307 9.64955 12.5136 9.36671 12.8553 9.36671H20.0089C20.3507 9.36671 20.6335 9.64955 20.6335 9.99132L20.6335 17.1449C20.6335 17.4867 20.3507 17.7695 20.0089 17.7695C19.838 17.7754 19.6789 17.6988 19.567 17.5868Z" fill="#F8A80D"/>
<path d="M9.54958 20.4506C9.30798 20.209 9.30798 19.8083 9.54958 19.5667L19.4667 9.64955C19.7083 9.40796 20.109 9.40796 20.3506 9.64955C20.5922 9.89115 20.5922 10.2918 20.3506 10.5334L10.4335 20.4506C10.1919 20.6922 9.79117 20.6922 9.54958 20.4506Z" fill="#F8A80D"/>
</svg>
