<svg width="113" height="39" viewBox="0 0 113 39" fill="none" xmlns="http://www.w3.org/2000/svg">
<rect x="0.970703" width="111.971" height="39" rx="19.5" fill="#F8A80D"/>
<path d="M32.1963 21.0521C32.1292 20.9849 32.0867 20.893 32.0867 20.7869L32.0867 16.8695L28.1694 16.8695C27.9643 16.8695 27.7946 16.6998 27.7946 16.4948C27.7946 16.2897 27.9643 16.12 28.1694 16.12L32.4615 16.12C32.6666 16.12 32.8363 16.2897 32.8363 16.4948L32.8363 20.7869C32.8363 20.992 32.6666 21.1617 32.4615 21.1617C32.359 21.1652 32.2635 21.1192 32.1963 21.0521Z" fill="#1A1A1A"/>
<path d="M26.1859 22.7703C26.0409 22.6254 26.0409 22.385 26.1859 22.24L32.1362 16.2897C32.2812 16.1447 32.5216 16.1447 32.6665 16.2897C32.8115 16.4347 32.8115 16.6751 32.6665 16.82L26.7162 22.7703C26.5713 22.9153 26.3309 22.9153 26.1859 22.7703Z" fill="#1A1A1A"/>
<path d="M42.3308 16.138H45.3828V25H46.7548V16.138H49.7928V14.878H42.3308V16.138ZM54.0341 18.098C53.7681 18.042 53.5721 18.014 53.3341 18.014C52.3961 18.014 51.7101 18.49 51.4301 19.204L51.3461 18.168H50.1141V25H51.4301V21.374C51.4301 20.058 52.2001 19.302 53.4461 19.302H54.0341V18.098ZM56.997 25.168C58.103 25.168 59.041 24.678 59.391 23.894L59.531 25H60.651V20.702C60.651 18.854 59.503 17.958 57.809 17.958C56.045 17.958 54.869 18.896 54.869 20.324H56.017C56.017 19.498 56.647 19.008 57.753 19.008C58.677 19.008 59.363 19.414 59.363 20.562V20.758L57.207 20.926C55.597 21.052 54.659 21.836 54.659 23.096C54.659 24.342 55.527 25.168 56.997 25.168ZM57.375 24.146C56.521 24.146 55.989 23.782 55.989 23.054C55.989 22.382 56.465 21.934 57.627 21.822L59.377 21.682V22.046C59.377 23.334 58.621 24.146 57.375 24.146ZM63.7895 25V21.374C63.7895 20.044 64.5035 19.162 65.7355 19.162C66.7435 19.162 67.3875 19.722 67.3875 21.108V25H68.7035V20.814C68.7035 19.064 67.8775 17.958 66.0715 17.958C65.1055 17.958 64.2375 18.42 63.8035 19.204L63.6635 18.154H62.4735V25H63.7895ZM69.8842 23.012C69.8842 24.314 70.9062 25.168 72.5162 25.168C74.1402 25.168 75.2602 24.342 75.2602 23.04C75.2602 22.018 74.6862 21.486 73.5242 21.206L72.3202 20.912C71.6482 20.744 71.3122 20.436 71.3122 19.974C71.3122 19.344 71.7742 18.98 72.6002 18.98C73.3982 18.98 73.8602 19.414 73.8882 20.1H75.1482C75.1202 18.798 74.1402 17.958 72.6422 17.958C71.1302 17.958 70.0662 18.756 70.0662 20.016C70.0662 21.024 70.6402 21.626 71.8582 21.92L73.0622 22.2C73.7762 22.382 74.0002 22.662 74.0002 23.124C74.0002 23.754 73.4682 24.132 72.5442 24.132C71.6762 24.132 71.1442 23.712 71.1442 23.012H69.8842ZM75.9916 18.154V19.26H76.9996V25H78.3156V19.26H79.9396V18.154H78.3156V17.062C78.3156 16.32 78.5396 15.886 79.3936 15.886H79.9816V14.752C79.7156 14.71 79.4216 14.696 79.1696 14.696C77.9236 14.696 76.9996 15.382 76.9996 17.062V18.154H75.9916ZM83.9119 25.168C85.6059 25.168 86.7539 24.342 87.0899 22.872H85.8579C85.6339 23.656 84.9619 24.076 83.9399 24.076C82.6379 24.076 81.8819 23.278 81.7839 21.836L87.0759 21.822V21.332C87.0759 19.302 85.8019 17.958 83.8559 17.958C81.8679 17.958 80.5099 19.442 80.5099 21.584C80.5099 23.712 81.8959 25.168 83.9119 25.168ZM83.8559 19.064C85.0179 19.064 85.7599 19.82 85.7599 20.954H81.8119C81.9799 19.75 82.7079 19.064 83.8559 19.064ZM92.4658 18.098C92.1998 18.042 92.0038 18.014 91.7658 18.014C90.8278 18.014 90.1418 18.49 89.8618 19.204L89.7778 18.168H88.5458V25H89.8618V21.374C89.8618 20.058 90.6318 19.302 91.8778 19.302H92.4658V18.098Z" fill="#1A1A1A"/>
</svg>
